<svg xmlns="http://www.w3.org/2000/svg" width="256" height="256" viewBox="0 0 100 100"><rect width="100" height="100" rx="20" fill="#fff3c9"></rect><path fill="#000000" d="M16.88 70.31L16.88 29.69Q17.30 29.69 18.80 29.66Q20.30 29.63 22.16 29.63Q24.02 29.63 25.88 29.60Q27.74 29.57 28.94 29.57L28.94 29.57Q36.38 29.57 39.80 32.48Q43.22 35.39 43.22 40.67L43.22 40.67Q43.22 44.15 41.48 46.85Q39.74 49.55 35.78 50.75L35.78 50.75Q37.46 51.71 38.78 53.39Q40.10 55.07 41.36 57.50Q42.62 59.93 43.94 63.14Q45.26 66.35 47 70.31L47 70.31L39.26 70.31Q37.22 65.57 35.69 62.21Q34.16 58.85 32.72 56.75Q31.28 54.65 29.63 53.69Q27.98 52.73 25.76 52.73L25.76 52.73L24.02 52.73L24.02 70.31L16.88 70.31ZM24.02 34.67L24.02 47.51L28.64 47.51Q32 47.51 33.83 46.01Q35.66 44.51 35.66 41.57L35.66 41.57Q35.66 40.25 35.30 38.99Q34.94 37.73 34.07 36.77Q33.20 35.81 31.73 35.24Q30.26 34.67 28.04 34.67L28.04 34.67L24.02 34.67ZM51.32 70.31L51.32 29.69Q51.74 29.69 53.12 29.66Q54.50 29.63 56.24 29.63Q57.98 29.63 59.84 29.60Q61.70 29.57 63.08 29.57L63.08 29.57Q73.28 29.57 78.20 34.64Q83.12 39.71 83.12 49.73L83.12 49.73Q83.12 59.75 78.08 65.09Q73.04 70.43 62.30 70.43L62.30 70.43Q60.44 70.43 58.67 70.40Q56.90 70.37 55.43 70.37Q53.96 70.37 52.88 70.34Q51.80 70.31 51.32 70.31L51.32 70.31ZM62.24 34.91Q60.86 34.91 59.93 34.94Q59 34.97 58.46 34.97L58.46 34.97L58.46 65.03Q59.12 65.09 60.17 65.09Q61.22 65.09 63.20 65.09L63.20 65.09Q69.50 65.09 72.44 61.40Q75.38 57.71 75.38 50.39L75.38 50.39Q75.38 46.91 74.69 44.06Q74 41.21 72.41 39.17Q70.82 37.13 68.33 36.02Q65.84 34.91 62.24 34.91L62.24 34.91Z"></path></svg>